<svg width="18" height="18" viewBox="0 0 18 18" fill="none" xmlns="http://www.w3.org/2000/svg">
<path fill-rule="evenodd" clip-rule="evenodd" d="M9 0C4.032 0 0 4.032 0 9C0 13.968 4.032 18 9 18C13.968 18 18 13.968 18 9C18 4.032 13.968 0 9 0ZM9 4.5C8.505 4.5 8.1 4.905 8.1 5.4V8.1H5.4C4.905 8.1 4.5 8.505 4.5 9C4.5 9.495 4.905 9.9 5.4 9.9H8.1V12.6C8.1 13.095 8.505 13.5 9 13.5C9.495 13.5 9.9 13.095 9.9 12.6V9.9H12.6C13.095 9.9 13.5 9.495 13.5 9C13.5 8.505 13.095 8.1 12.6 8.1H9.9V5.4C9.9 4.905 9.495 4.5 9 4.5ZM1.79991 9.00002C1.79991 12.969 5.03091 16.2 8.99991 16.2C12.9689 16.2 16.1999 12.969 16.1999 9.00002C16.1999 5.03102 12.9689 1.80002 8.99991 1.80002C5.03091 1.80002 1.79991 5.03102 1.79991 9.00002Z" fill="#3562C5"/>
</svg>
