<svg width="15" height="15" viewBox="0 0 15 15" fill="none" xmlns="http://www.w3.org/2000/svg">
<path d="M11.8706 7.50533H12.9558C13.2012 7.50533 13.4008 7.32571 13.4008 7.10494V6.12838C13.4008 5.90761 13.2012 5.72799 12.9558 5.72799H11.8706C11.6253 5.72799 11.4257 5.90761 11.4257 6.12838V7.10494C11.4257 7.32571 11.6253 7.50533 11.8706 7.50533ZM11.8815 6.13815H12.945V7.09518H11.8815V6.13815ZM11.8706 10.103H12.9558C13.2012 10.103 13.4008 9.92337 13.4008 9.7026V8.72604C13.4008 8.50527 13.2012 8.32565 12.9558 8.32565H11.8706C11.6253 8.32565 11.4257 8.50527 11.4257 8.72604V9.7026C11.4257 9.92337 11.6253 10.103 11.8706 10.103ZM11.8815 8.7358H12.945V9.69283H11.8815V8.7358ZM8.77388 7.50533H9.85907C10.1044 7.50533 10.304 7.32571 10.304 7.10494V6.12838C10.304 5.90761 10.1044 5.72799 9.85907 5.72799H8.77388C8.52855 5.72799 8.32895 5.90761 8.32895 6.12838V7.10494C8.32895 7.32571 8.52855 7.50533 8.77388 7.50533ZM8.78473 6.13815H9.84822V7.09518H8.78473V6.13815ZM3.66556 10.8015H2.58037C2.33504 10.8015 2.13544 10.9811 2.13544 11.2019V12.1785C2.13544 12.3992 2.33504 12.5789 2.58037 12.5789H3.66556C3.91089 12.5789 4.11049 12.3992 4.11049 12.1785V11.2019C4.11049 10.9811 3.91089 10.8015 3.66556 10.8015ZM3.65471 12.1687H2.59122V11.2117H3.65471V12.1687ZM3.66556 5.72799H2.58037C2.33504 5.72799 2.13544 5.90761 2.13544 6.12838V7.10494C2.13544 7.32571 2.33504 7.50533 2.58037 7.50533H3.66556C3.91089 7.50533 4.11049 7.32571 4.11049 7.10494V6.12838C4.11049 5.90758 3.91089 5.72799 3.66556 5.72799ZM3.65471 7.09518H2.59122V6.13815H3.65471V7.09518ZM8.77388 10.0421H9.85907C10.1044 10.0421 10.304 9.86248 10.304 9.6417V8.66515C10.304 8.44437 10.1044 8.26475 9.85907 8.26475H8.77388C8.52855 8.26475 8.32895 8.44437 8.32895 8.66515V9.6417C8.32895 9.86248 8.52855 10.0421 8.77388 10.0421ZM8.78473 8.67491H9.84822V9.63194H8.78473V8.67491ZM13.6271 1.56682H12.6528V1.25327C12.6528 0.909393 12.3419 0.629639 11.9598 0.629639H11.8551C11.473 0.629639 11.1621 0.909393 11.1621 1.25327V1.56682H4.37405V1.25327C4.37405 0.909393 4.06318 0.629639 3.68105 0.629639H3.5764C3.19428 0.629639 2.88341 0.909393 2.88341 1.25327V1.56682H1.9091C1.27997 1.56682 0.768127 2.02742 0.768127 2.59358V13.6042C0.768127 14.1697 1.27927 14.6296 1.90758 14.6296H13.6287C14.257 14.6296 14.7681 14.1697 14.7681 13.6042V2.59358C14.7681 2.02742 14.2563 1.56682 13.6271 1.56682ZM11.6179 1.25327C11.6179 1.13555 11.7243 1.03979 11.8551 1.03979H11.9598C12.0906 1.03979 12.197 1.13555 12.197 1.25327V1.56682H11.6179V1.25327ZM3.33922 1.25327C3.33922 1.13555 3.44563 1.03979 3.57644 1.03979H3.68108C3.81189 1.03979 3.9183 1.13555 3.9183 1.25327V1.56682H3.33925V1.25327H3.33922ZM14.3123 13.6042C14.3123 13.9435 14.0056 14.2195 13.6286 14.2195H1.90755C1.53056 14.2195 1.22388 13.9435 1.22388 13.6042V13.603C1.41482 13.7324 1.65216 13.8093 1.9091 13.8093H11.1488C11.4535 13.8093 11.7401 13.7025 11.9556 13.5086L14.3123 11.3877V13.6042ZM11.723 13.1378C11.7409 13.0714 11.7506 13.0022 11.7506 12.931V11.5621C11.7506 11.3039 11.984 11.0939 12.2709 11.0939H13.7921C13.8712 11.0939 13.9481 11.0852 14.0219 11.0691L11.723 13.1378ZM14.3123 4.49752H4.60194C4.47609 4.49752 4.37405 4.58934 4.37405 4.7026C4.37405 4.81586 4.47609 4.90768 4.60194 4.90768H14.3123V10.2156C14.3123 10.4737 14.0789 10.6838 13.7921 10.6838H12.2709C11.7327 10.6838 11.2948 11.0778 11.2948 11.5621V12.931C11.2948 13.1892 11.0614 13.3992 10.7746 13.3992H1.9091C1.53129 13.3992 1.22391 13.1226 1.22391 12.7826V4.90768H3.69038C3.81624 4.90768 3.91827 4.81586 3.91827 4.7026C3.91827 4.58934 3.81624 4.49752 3.69038 4.49752H1.22388V2.59358C1.22388 2.25358 1.53126 1.97697 1.90907 1.97697H2.88341V2.57996C2.88341 2.92383 3.19428 3.20359 3.5764 3.20359C3.70226 3.20359 3.8043 3.11177 3.8043 2.99851C3.8043 2.88525 3.70226 2.79343 3.5764 2.79343C3.4456 2.79343 3.33919 2.69767 3.33919 2.57996V1.97697H11.1621V2.57996C11.1621 2.92383 11.473 3.20359 11.8551 3.20359C11.981 3.20359 12.083 3.11177 12.083 2.99851C12.083 2.88525 11.981 2.79343 11.8551 2.79343C11.7243 2.79343 11.6179 2.69767 11.6179 2.57996V1.97697H13.6271C14.0049 1.97697 14.3123 2.25358 14.3123 2.59358V4.49752ZM3.66556 8.26475H2.58037C2.33504 8.26475 2.13544 8.44437 2.13544 8.66515V9.6417C2.13544 9.86248 2.33504 10.0421 2.58037 10.0421H3.66556C3.91089 10.0421 4.11049 9.86248 4.11049 9.6417V8.66515C4.11049 8.44435 3.91089 8.26475 3.66556 8.26475ZM3.65471 9.63194H2.59122V8.67491H3.65471V9.63194ZM5.67713 7.50533H6.76231C7.00764 7.50533 7.20724 7.32571 7.20724 7.10494V6.12838C7.20724 5.90761 7.00764 5.72799 6.76231 5.72799H5.67713C5.4318 5.72799 5.23219 5.90761 5.23219 6.12838V7.10494C5.23219 7.32571 5.4318 7.50533 5.67713 7.50533ZM5.68798 6.13815H6.75146V7.09518H5.68798V6.13815ZM8.78446 12.1687C8.77881 12.06 8.67905 11.9734 8.55681 11.9734C8.43095 11.9734 8.32892 12.0652 8.32892 12.1785C8.32892 12.3992 8.52852 12.5789 8.77385 12.5789H9.85904C10.1044 12.5789 10.304 12.3992 10.304 12.1785V11.2019C10.304 10.9811 10.1044 10.8015 9.85904 10.8015H8.77385C8.52852 10.8015 8.32892 10.9811 8.32892 11.2019V11.4835C8.32892 11.5968 8.43095 11.6886 8.55681 11.6886C8.68267 11.6886 8.7847 11.5968 8.7847 11.4835V11.2117H9.84819V12.1687H8.78446ZM5.67713 10.0421H6.76231C7.00764 10.0421 7.20724 9.86248 7.20724 9.6417V8.66515C7.20724 8.44437 7.00764 8.26475 6.76231 8.26475H5.67713C5.4318 8.26475 5.23219 8.44437 5.23219 8.66515V9.6417C5.23219 9.86248 5.4318 10.0421 5.67713 10.0421ZM5.68798 8.67491H6.75146V9.63194H5.68798V8.67491ZM5.67713 12.5789H6.76231C7.00764 12.5789 7.20724 12.3992 7.20724 12.1785V11.2019C7.20724 10.9811 7.00764 10.8015 6.76231 10.8015H5.67713C5.4318 10.8015 5.23219 10.9811 5.23219 11.2019V12.1785C5.23219 12.3992 5.4318 12.5789 5.67713 12.5789ZM5.68798 11.2117H6.75146V12.1687H5.68798V11.2117Z" fill="#D44638"/>
</svg>

