<svg width="40" height="40" viewBox="0 0 40 40" fill="none" xmlns="http://www.w3.org/2000/svg">
<path fill-rule="evenodd" clip-rule="evenodd" d="M4.44444 0H35.5556C38 0 40 2 40 4.44444V35.5556C40 38 38 40 35.5556 40H4.44444C2 40 0 38 0 35.5556V4.44444C0 2 2 0 4.44444 0ZM14.0001 29.5333C14.8667 30.4 16.2667 30.4 17.1334 29.5333L33.9778 12.6667C34.8445 11.8 34.8445 10.4 33.9778 9.53333C33.1112 8.66667 31.7112 8.66667 30.8445 9.53333L15.5556 24.8222L9.15562 18.4222C8.28895 17.5556 6.88895 17.5556 6.02228 18.4222C5.60617 18.8374 5.37231 19.4011 5.37231 19.9889C5.37231 20.5767 5.60617 21.1404 6.02228 21.5556L14.0001 29.5333Z" fill="#3562C5"/>
</svg>
