<svg width="40" height="40" viewBox="0 0 40 40" fill="none" xmlns="http://www.w3.org/2000/svg">
<path fill-rule="evenodd" clip-rule="evenodd" d="M4.44444 0H35.5556C38 0 40 2 40 4.44444V35.5556C40 38 38 40 35.5556 40H4.44444C2 40 0 38 0 35.5556V4.44444C0 2 2 0 4.44444 0ZM14 29.5333C14.8667 30.4 16.2667 30.4 17.1333 29.5333L33.9778 12.6667C34.8444 11.8 34.8444 10.4 33.9778 9.53333C33.1111 8.66666 31.7111 8.66666 30.8444 9.53333L15.5555 24.8222L9.15555 18.4222C8.28888 17.5555 6.88888 17.5555 6.02222 18.4222C5.6061 18.8374 5.37225 19.4011 5.37225 19.9889C5.37225 20.5767 5.6061 21.1404 6.02222 21.5555L14 29.5333Z" fill="#D44638"/>
</svg>
