<svg width="15" height="15" viewBox="0 0 15 15" fill="none" xmlns="http://www.w3.org/2000/svg">
<path d="M14.0301 2.36964H12.5152V0.969639C12.5152 0.789639 12.382 0.629639 12.2322 0.629639H0.612708C0.462887 0.629639 0.329712 0.789639 0.329712 0.969639V9.96964C0.329712 10.1496 0.462887 10.3096 0.612708 10.3096H2.12757V11.7096C2.12757 11.8896 2.26075 12.0496 2.41057 12.0496H3.87549V14.2896C3.87549 14.4096 3.94208 14.5296 4.02531 14.5896C4.05861 14.6296 4.10855 14.6296 4.15849 14.6296C4.20843 14.6296 4.27502 14.6096 4.32496 14.5696L7.37133 12.0496H14.0467C14.1965 12.0496 14.3297 11.8896 14.3297 11.7096V2.70964C14.3131 2.50964 14.1799 2.36964 14.0301 2.36964ZM2.12757 2.70964V9.62964H0.895705V1.30964H11.9492V2.36964H2.41057C2.26075 2.36964 2.12757 2.52964 2.12757 2.70964ZM13.7471 11.3696H7.27145C7.22151 11.3696 7.15492 11.3896 7.10498 11.4296L4.44148 13.6496V11.7096C4.44148 11.5296 4.30831 11.3696 4.15849 11.3696H2.69356V3.04964H13.7471V11.3696Z" fill="#D44638"/>
<path d="M4.70786 5.24982H11.7328C11.8827 5.24982 12.0158 5.08982 12.0158 4.90982C12.0158 4.70982 11.8827 4.56982 11.7328 4.56982H4.70786C4.55804 4.56982 4.42487 4.72982 4.42487 4.90982C4.42487 5.08982 4.55804 5.24982 4.70786 5.24982Z" fill="#D44638"/>
<path d="M4.70786 7.40974H11.7328C11.8827 7.40974 12.0158 7.24974 12.0158 7.06974C12.0158 6.88974 11.8827 6.72974 11.7328 6.72974H4.70786C4.55804 6.72974 4.42487 6.88974 4.42487 7.06974C4.42487 7.24974 4.55804 7.40974 4.70786 7.40974Z" fill="#D44638"/>
<path d="M4.70786 9.56989H8.63652C8.78634 9.56989 8.91952 9.40989 8.91952 9.22989C8.91952 9.02989 8.80299 8.88989 8.63652 8.88989H4.70786C4.55804 8.88989 4.42487 9.04989 4.42487 9.22989C4.42487 9.40989 4.55804 9.56989 4.70786 9.56989Z" fill="#D44638"/>
</svg>
