<svg width="40" height="40" viewBox="0 0 40 40" fill="none" xmlns="http://www.w3.org/2000/svg">
<path fill-rule="evenodd" clip-rule="evenodd" d="M4.44444 0H35.5556C38 0 40 2 40 4.44444V35.5556C40 38 38 40 35.5556 40H4.44444C2 40 0 38 0 35.5556V4.44444C0 2 2 0 4.44444 0ZM11.1111 22.2222H28.8889C30.1111 22.2222 31.1111 21.2222 31.1111 20C31.1111 18.7778 30.1111 17.7778 28.8889 17.7778H11.1111C9.88892 17.7778 8.88892 18.7778 8.88892 20C8.88892 21.2222 9.88892 22.2222 11.1111 22.2222Z" fill="#3562C5"/>
</svg>
