<svg width="15" height="15" viewBox="0 0 15 15" fill="none" xmlns="http://www.w3.org/2000/svg">
<path fill-rule="evenodd" clip-rule="evenodd" d="M7.5 0C3.36 0 0 3.36 0 7.5C0 11.64 3.36 15 7.5 15C11.64 15 15 11.64 15 7.5C15 3.36 11.64 0 7.5 0ZM7.50251 13.4999C4.18751 13.4999 1.50251 10.8149 1.50251 7.4999C1.50251 4.1849 4.18751 1.4999 7.50251 1.4999C10.8175 1.4999 13.5025 4.1849 13.5025 7.4999C13.5025 10.8149 10.8175 13.4999 7.50251 13.4999ZM3.75 7.5C3.75 5.42893 5.42893 3.75 7.5 3.75C9.57107 3.75 11.25 5.42893 11.25 7.5C11.25 9.57107 9.57107 11.25 7.5 11.25C5.42893 11.25 3.75 9.57107 3.75 7.5Z" fill="#3562C5"/>
</svg>
