<svg width="90" height="90" viewBox="0 0 90 90" fill="none" xmlns="http://www.w3.org/2000/svg">
<circle cx="45" cy="45" r="44.5" stroke="#D44638"/>
<path d="M41.1355 33.215C41.4248 32.8071 41.5914 32.7577 41.59 32.7554C41.5992 32.7577 41.7658 32.8067 42.0551 33.215C42.3357 33.611 42.8841 33.7048 43.2806 33.4237C43.6765 33.1431 43.7699 32.5947 43.4893 32.1987C42.9244 31.4018 42.2872 30.9976 41.5955 30.9976C40.9034 30.9976 40.2662 31.4018 39.7013 32.1987C39.4207 32.5947 39.5145 33.1436 39.9105 33.4242C40.0648 33.5336 40.2424 33.5858 40.4177 33.5858C40.6933 33.5858 40.9643 33.4567 41.1355 33.215Z" fill="#D44638"/>
<path d="M48.7759 33.4242C49.1723 33.7048 49.7207 33.611 50.0014 33.215C50.2907 32.8071 50.4573 32.7577 50.4559 32.7554C50.4646 32.7577 50.6312 32.8071 50.921 33.215C51.0922 33.4572 51.3632 33.5858 51.6388 33.5858C51.8146 33.5858 51.9917 33.5336 52.146 33.4242C52.542 33.1436 52.6358 32.5947 52.3547 32.1988C51.7903 31.4018 51.1526 30.998 50.461 30.998C49.7693 30.998 49.1316 31.4018 48.5672 32.1988C48.2866 32.5947 48.3799 33.1431 48.7759 33.4242Z" fill="#D44638"/>
<path d="M42.1272 37.4291C41.6864 37.6323 41.4937 38.1546 41.6969 38.5955C42.4737 40.2796 44.1739 41.3677 46.0278 41.3677C47.8823 41.3677 49.5819 40.2796 50.3588 38.5955C50.562 38.1546 50.3698 37.6323 49.9289 37.4291C49.4881 37.2258 48.9658 37.4186 48.7625 37.8594C48.2723 38.9228 47.1988 39.6099 46.0278 39.6099C44.8573 39.6099 43.7839 38.9223 43.2931 37.8594C43.0899 37.4186 42.568 37.2258 42.1272 37.4291Z" fill="#D44638"/>
<path d="M38.3483 63.9961L36.4436 63.8322L35.6992 62.0711C35.4411 61.46 34.8455 61.0654 34.1822 61.0654C33.5189 61.0654 32.9234 61.46 32.6652 62.0711L31.9208 63.8322L30.0156 63.9961C29.3546 64.0528 28.7952 64.4969 28.5901 65.1281C28.3855 65.7589 28.5769 66.4474 29.0781 66.8814L30.5233 68.1338L30.0902 69.996C29.9401 70.6424 30.1896 71.3116 30.7265 71.7016C31.263 72.0912 31.9767 72.1219 32.5448 71.7795L34.1822 70.7921L35.8196 71.7795C36.0824 71.9383 36.3767 72.0166 36.6702 72.0166C37.0107 72.0166 37.35 71.9108 37.6379 71.7016C38.1749 71.3116 38.4243 70.6424 38.2742 69.996L37.8411 68.1338L39.2863 66.8814C39.7876 66.4469 39.9789 65.7589 39.7738 65.1281C39.5692 64.4973 39.0094 64.0528 38.3483 63.9961ZM36.6395 66.8489C36.1762 67.2499 35.9748 67.8697 36.1135 68.4666L36.5026 70.1388L35.0327 69.2521C34.5081 68.9358 33.8563 68.9358 33.3317 69.2521L31.8618 70.1388L32.2509 68.4666C32.3896 67.8697 32.1882 67.2499 31.7249 66.8489L30.4276 65.7246L32.1378 65.5781C32.7485 65.5255 33.2754 65.1423 33.5143 64.5783L34.1822 62.9967L34.8505 64.5783C35.089 65.1423 35.6164 65.5255 36.2266 65.5781L37.9368 65.725L36.6395 66.8489Z" fill="#D44638"/>
<path d="M50.1946 63.9961L48.2893 63.8322L47.545 62.0711C47.2868 61.46 46.6913 61.0654 46.028 61.0654C45.3647 61.0654 44.7691 61.46 44.5109 62.0711L43.7666 63.8322L41.8618 63.9961C41.2008 64.0528 40.641 64.4968 40.4364 65.1281C40.2313 65.7589 40.4226 66.4474 40.9239 66.8814L42.369 68.1338L41.936 69.996C41.7859 70.6424 42.0358 71.3116 42.5723 71.7016C42.8602 71.9108 43.1994 72.0166 43.54 72.0166C43.8334 72.0166 44.1278 71.9383 44.391 71.7795L46.028 70.7921L47.6654 71.7795C48.2335 72.1223 48.9472 72.0917 49.4841 71.7016C50.0206 71.3116 50.2706 70.6424 50.12 69.996L49.6869 68.1338L51.1321 66.8814C51.6333 66.4469 51.8251 65.7589 51.6201 65.1281C51.415 64.4973 50.8551 64.0528 50.1946 63.9961ZM48.4853 66.8489C48.0225 67.2499 47.8211 67.8701 47.9598 68.4666L48.3484 70.1388L46.8785 69.2521C46.3539 68.9358 45.7025 68.9358 45.1774 69.2521L43.7076 70.1388L44.0967 68.4666C44.2354 67.8697 44.0339 67.2499 43.5711 66.8489L42.2734 65.7246L43.984 65.5781C44.5943 65.5254 45.1216 65.1423 45.3601 64.5783L46.0284 62.9967L46.6963 64.5783C46.9348 65.1423 47.4622 65.5254 48.0724 65.5781L49.7826 65.7246L48.4853 66.8489Z" fill="#D44638"/>
<path d="M62.04 63.996L60.1352 63.8322L59.3909 62.0711C59.1323 61.46 58.5367 61.0654 57.8734 61.0654C57.2101 61.0654 56.615 61.46 56.3568 62.0711L55.6125 63.8322L53.7073 63.996C53.0463 64.0528 52.4869 64.4968 52.2818 65.1281C52.0772 65.7589 52.2685 66.4469 52.7698 66.8813L54.2149 68.1338L53.7819 69.996C53.6317 70.6424 53.8812 71.3116 54.4177 71.7016C54.9547 72.0916 55.6683 72.1219 56.2364 71.7794L57.8739 70.792L59.5113 71.7794C59.7741 71.9383 60.0684 72.0166 60.3618 72.0166C60.7024 72.0166 61.0416 71.9108 61.33 71.7016C61.8665 71.3116 62.116 70.6424 61.9658 69.996L61.5328 68.1338L62.978 66.8813C63.4792 66.4469 63.6706 65.7589 63.466 65.1281C63.2609 64.4973 62.701 64.0528 62.04 63.996ZM60.3307 66.8488C59.8679 67.2499 59.6665 67.8701 59.8056 68.4666L60.1943 70.1388L58.7244 69.2521C58.1998 68.9358 57.5479 68.9358 57.0233 69.2521L55.5534 70.1384L55.9421 68.4666C56.0808 67.8701 55.8794 67.2499 55.4166 66.8488L54.1193 65.7246L55.8295 65.5776C56.4397 65.5254 56.967 65.1423 57.2055 64.5779L57.8739 62.9967L58.5417 64.5779C58.7802 65.1423 59.3076 65.5254 59.9178 65.5776L61.6285 65.7246L60.3307 66.8488Z" fill="#D44638"/>
<path d="M59.9954 58.1041C59.9222 56.7665 59.5935 55.477 59.0158 54.2639C58.8071 53.8254 58.2829 53.6395 57.8444 53.8483C57.4063 54.0566 57.2205 54.5812 57.4287 55.0197C57.8902 55.9883 58.1598 57.0165 58.2326 58.0831H33.8245C34.0314 55.1245 35.7654 52.497 38.3623 51.1328C38.5916 53.8336 40.219 56.2264 42.7193 57.4189C42.8896 57.4999 43.0718 57.5406 43.2531 57.5406C43.4824 57.5406 43.7108 57.4761 43.9127 57.3479C44.278 57.1167 44.495 56.7194 44.4932 56.2836C44.4932 54.99 45.2105 53.8556 46.0281 53.8556C46.8461 53.8556 47.5634 54.99 47.5634 56.2859C47.5611 56.7189 47.7781 57.1158 48.1425 57.3475C48.5032 57.5763 48.9495 57.6033 49.3373 57.4189C51.801 56.2438 53.4581 53.8222 53.6924 51.131C54.3654 51.4844 54.9875 51.927 55.5524 52.4558C55.7217 52.6146 55.9373 52.6929 56.1525 52.6929C56.3873 52.6929 56.6217 52.5995 56.7947 52.4146C57.1266 52.0602 57.1078 51.5041 56.7535 51.1722C55.8256 50.3038 54.7677 49.6263 53.6032 49.1539C53.3999 48.0575 52.9367 47.077 52.2322 46.2571C54.6716 44.4339 56.1104 41.5879 56.114 38.5168H57.1348C57.9904 38.5168 58.7883 38.1776 59.3825 37.5619C59.9762 36.9466 60.2866 36.1364 60.2564 35.2804C60.2271 34.4413 59.8494 33.6818 59.2644 33.1353C60.3108 30.9943 62.2303 26.3223 60.6835 23.4988C59.9506 22.1617 58.678 21.6472 57.5867 21.4673C56.2981 18.858 54.2669 16.9619 51.687 15.9667C49.0104 14.9345 45.996 14.9665 42.9697 16.0601C39.7992 17.2059 36.6915 16.9262 33.7329 15.2297C33.2381 14.9455 32.6608 14.9239 32.149 15.1711C31.6052 15.4339 31.2248 15.9649 31.1305 16.5898C30.8531 18.4213 30.7359 20.6826 30.8082 22.7939C30.8252 23.2791 31.2349 23.659 31.7169 23.6421C32.2021 23.6252 32.5816 23.2187 32.5651 22.7334C32.4672 19.882 32.7446 17.6715 32.8686 16.8521C32.8741 16.8163 32.8851 16.7912 32.8947 16.7756C36.312 18.7225 39.9018 19.0379 43.5671 17.7136C48.9344 15.7736 54.0097 17.7529 56.1955 22.6387C56.3264 22.9312 56.6061 23.1294 56.9257 23.1555C58.0289 23.2466 58.7535 23.6352 59.1417 24.3434C60.1103 26.1122 59.0341 29.6068 57.702 32.3301C57.5006 32.2898 57.2932 32.2687 57.0808 32.2687H56.114V31.734C56.114 29.4603 55.0964 27.3372 53.3235 25.9099C52.5746 25.3047 51.5116 25.2347 50.6771 25.7355C49.2764 26.5759 47.6687 27.02 46.0281 27.02C44.3874 27.02 42.7802 26.5755 41.379 25.7355C40.5449 25.2351 39.4815 25.3052 38.734 25.9085C36.9597 27.3372 35.9421 29.4603 35.9421 31.734V32.2687H34.9753C34.8943 32.2687 34.8142 32.2715 34.7345 32.2779C33.8419 30.5841 33.2129 28.5095 32.8613 26.0994C32.7913 25.6192 32.3463 25.2869 31.8648 25.3564C31.3841 25.4269 31.0518 25.8728 31.1218 26.353C31.4889 28.8689 32.1449 31.0657 33.0765 32.8981C32.3312 33.4493 31.8332 34.3117 31.7998 35.279C31.7691 36.1355 32.0795 36.9462 32.6736 37.5619C33.2674 38.1776 34.0657 38.5168 34.9213 38.5168H35.9416C35.9458 41.5893 37.3859 44.4361 39.8272 46.2594C39.1199 47.0697 38.6525 48.0525 38.4502 49.1557C34.7743 50.6503 32.2827 54.1422 32.0616 58.1037C27.6762 58.4127 24.2031 62.0789 24.2031 66.5412C24.2031 71.2054 27.9976 74.9998 32.6617 74.9998H59.3944C64.0586 74.9998 67.853 71.2054 67.853 66.5412C67.853 62.0798 64.3799 58.4131 59.9954 58.1041ZM42.7985 55.4537C41.0096 54.2969 39.9695 52.269 40.1041 50.0941C40.1082 50.0282 40.1133 49.9632 40.1197 49.8987C40.121 49.8872 40.122 49.8758 40.1229 49.8643C40.1476 49.6281 40.1865 49.4006 40.2405 49.1818C40.7949 50.9717 42.1586 52.4091 43.9013 53.0646C43.3419 53.6601 42.9455 54.4924 42.7985 55.4537ZM50.3274 47.3695C50.3215 47.4002 50.4547 49.0454 49.069 50.4329C48.256 51.245 47.1761 51.6922 46.0281 51.6922C43.6573 51.6922 41.7287 49.7632 41.7287 47.3924V47.3695C44.1682 48.4535 47.6357 48.5474 50.3274 47.3695ZM49.2585 55.4518C49.1125 54.4933 48.7165 53.662 48.1576 53.0664C48.9564 52.767 49.6897 52.2974 50.3118 51.6757C51.0182 50.9685 51.5286 50.1179 51.8156 49.1901C51.8664 49.3979 51.9044 49.613 51.9291 49.835C51.9305 49.8666 51.9337 49.8978 51.9387 49.9284C51.9552 50.1056 51.9635 50.2864 51.9635 50.4723C51.9635 52.4869 50.923 54.3669 49.2585 55.4518ZM37.6999 38.504V37.6379C37.6999 37.1526 37.3062 36.7594 36.821 36.7594H34.9213C34.5477 36.7594 34.1985 36.6106 33.9384 36.3415C33.6789 36.0723 33.5434 35.7175 33.5567 35.3412C33.5818 34.6161 34.2181 34.0265 34.9753 34.0265H36.821C37.3062 34.0265 37.6999 33.6329 37.6999 33.1476V31.734C37.6999 29.9954 38.4786 28.3708 39.8377 27.2768C40.0171 27.1317 40.2675 27.1184 40.4749 27.2429C42.1489 28.2468 44.0693 28.7778 46.0281 28.7778C47.9868 28.7778 49.9072 28.2468 51.5812 27.2429C51.7886 27.1184 52.039 27.1317 52.2198 27.2781C53.5775 28.3708 54.3567 29.9954 54.3567 31.734V33.1476C54.3567 33.6329 54.7499 34.0265 55.2356 34.0265H57.0808C57.838 34.0265 58.4743 34.6161 58.4995 35.3412V35.3422C58.5127 35.7175 58.3772 36.0723 58.1177 36.3415C57.8577 36.6106 57.5088 36.7589 57.1348 36.7589H55.2351C54.7499 36.7589 54.3562 37.1526 54.3562 37.6379V38.504C54.3562 42.915 50.7778 46.4279 46.4323 46.4279C45.4366 46.4247 43.4806 46.5552 41.3268 45.1626C39.0558 43.6941 37.6999 41.2048 37.6999 38.504ZM59.3948 73.2425H32.6617C28.9671 73.2425 25.9609 70.2368 25.9609 66.5417C25.9609 62.8471 28.9671 59.8409 32.6617 59.8409C32.6736 59.8409 58.9824 59.8414 59.3944 59.8409C63.0895 59.8409 66.0952 62.8471 66.0952 66.5417C66.0952 70.2368 63.0895 73.2425 59.3948 73.2425Z" fill="#D44638"/>
</svg>
