<svg width="90" height="90" viewBox="0 0 90 90" fill="none" xmlns="http://www.w3.org/2000/svg">
<circle cx="45" cy="45" r="44.5" stroke="#D44638"/>
<path d="M18.308 65.3728C18.3073 65.9388 18.7655 66.3982 19.3315 66.3989L27.8271 66.4104C28.3931 66.4111 28.8525 65.9529 28.8532 65.3869L28.8547 64.4383L31.0522 63.2164C31.9159 62.7217 32.9384 62.5834 33.9024 62.8291L47.1689 66.1811C47.1912 66.1871 47.2133 66.1915 47.2359 66.196L47.3187 66.2106C50.2855 66.7271 53.3393 66.2914 56.0427 64.9644C56.0861 64.9431 56.128 64.9185 56.1684 64.8911L74.9398 52.0397C75.3876 51.7335 75.5187 51.1315 75.2398 50.6666C73.7685 48.2087 70.6264 47.3406 68.1024 48.694L59.7802 52.8956C58.5794 50.7654 56.326 49.4457 53.8809 49.4404L46.1333 49.4297C44.8989 49.4265 43.6815 49.1458 42.5703 48.6083L41.7722 48.2201C37.6719 46.218 32.8483 46.3635 28.8757 48.6091L28.8784 46.7434C28.8791 46.1774 28.4209 45.718 27.8549 45.7173L19.3598 45.7059C18.7937 45.7057 18.3343 46.1639 18.3336 46.7299L18.308 65.3728ZM40.8777 50.0652L41.6758 50.4529C43.0651 51.1253 44.5873 51.476 46.1305 51.4803L53.8781 51.491C56.0975 51.4966 58.0161 53.0404 58.4965 55.2072L46.8981 55.1913C46.3657 55.19 45.9211 55.5959 45.8744 56.1258C45.8273 56.6557 46.1933 57.1334 46.7172 57.2258C46.7759 57.2361 46.8354 57.2415 46.8954 57.2414L59.6303 57.259C60.1964 57.2592 60.6558 56.801 60.6565 56.235C60.6573 55.761 60.6081 55.2878 60.51 54.8238L69.0374 50.5187C69.0453 50.5145 69.0531 50.5103 69.061 50.5061C70.301 49.8374 71.8282 50.0244 72.87 50.9729L55.0706 63.1622C52.7738 64.2737 50.1864 64.6372 47.6726 64.2006L47.6347 64.1939L34.4029 60.8464C32.9295 60.4697 31.3674 60.6796 30.0459 61.4325L28.8573 62.0924L28.8725 51.0336C32.397 48.5429 36.9991 48.1718 40.8777 50.0652ZM26.8274 47.7661L26.8049 64.359L20.3594 64.3506L20.3818 47.7578L26.8274 47.7661Z" fill="#D44638"/>
<path d="M47.9574 46.5105C55.6442 46.5105 61.8757 40.2795 61.8757 32.5927C61.8757 24.9058 55.6447 18.6743 47.9579 18.6738C40.271 18.6738 34.0396 24.9053 34.0391 32.5922C34.0476 40.2755 40.274 46.502 47.9574 46.5105ZM47.9574 20.7238C54.5122 20.7238 59.8258 26.0379 59.8258 32.5927C59.8258 39.1474 54.5122 44.461 47.9574 44.4605C41.4026 44.4605 36.089 39.1469 36.089 32.5922C36.0965 26.0404 41.4061 20.7313 47.9574 20.7238Z" fill="#D44638"/>
<path d="M47.2406 34.7439H52.9751C53.5411 34.7439 54.0001 34.285 54.0001 33.7189C54.0001 33.1529 53.5411 32.694 52.9751 32.694H48.214V26.1412C48.214 25.5747 47.7551 25.1162 47.189 25.1162C46.623 25.1162 46.1641 25.5747 46.1641 26.1412V33.6679C46.1846 34.2535 46.6545 34.7239 47.2406 34.7439Z" fill="#D44638"/>
</svg>
