<svg width="166" height="107" viewBox="0 0 166 107" fill="none" xmlns="http://www.w3.org/2000/svg">
<g filter="url(#filter0_d)">
<path d="M124.802 39.0364L124.999 40.0188L125.981 39.8201C127.864 39.4392 129.781 39.248 131.703 39.248C147.664 39.248 160.604 52.1873 160.604 68.149C160.604 84.1107 147.664 97.05 131.703 97.05H31.129C16.8451 97.027 5.21776 85.5556 5.00298 71.2731C4.78949 56.9916 16.0666 45.1751 30.3427 44.7238L31.7221 44.6802L31.2511 43.3831C25.2969 26.9833 33.7651 8.85955 50.1661 2.90537C66.5672 -3.04884 84.6896 5.41932 90.6438 21.8203L91.0154 22.8441L92.0038 22.3866C98.5136 19.3736 106.045 19.5098 112.441 22.757L112.441 22.757C118.837 26.0043 123.393 32.0036 124.802 39.0364Z" fill="white" stroke="#55575C" stroke-width="2"/>
<path fill-rule="evenodd" clip-rule="evenodd" d="M89.3486 79.8766H77.6348C76.0241 79.8766 74.7063 78.5588 74.7063 76.9481V62.3058H70.0501C67.4437 62.3058 66.1552 59.1431 68.0001 57.2982L81.4418 43.8565C81.9889 43.3082 82.7317 43 83.5063 43C84.2809 43 85.0238 43.3082 85.5709 43.8565L99.0125 57.2982C100.857 59.1431 99.5396 62.3058 96.9333 62.3058H92.2771V76.9481C92.2771 78.5588 90.9592 79.8766 89.3486 79.8766ZM101.07 85.733H65.9285C64.3178 85.733 63 87.0508 63 88.6614C63 90.2721 64.3178 91.5899 65.9285 91.5899H101.07C102.681 91.5899 103.998 90.2721 103.998 88.6614C103.998 87.0508 102.681 85.733 101.07 85.733Z" fill="#55575C"/>
</g>
<defs>
<filter id="filter0_d" x="0" y="0" width="165.604" height="106.05" filterUnits="userSpaceOnUse" color-interpolation-filters="sRGB">
<feFlood flood-opacity="0" result="BackgroundImageFix"/>
<feColorMatrix in="SourceAlpha" type="matrix" values="0 0 0 0 0 0 0 0 0 0 0 0 0 0 0 0 0 0 127 0"/>
<feOffset dy="4"/>
<feGaussianBlur stdDeviation="2"/>
<feColorMatrix type="matrix" values="0 0 0 0 0 0 0 0 0 0 0 0 0 0 0 0 0 0 0.25 0"/>
<feBlend mode="normal" in2="BackgroundImageFix" result="effect1_dropShadow"/>
<feBlend mode="normal" in="SourceGraphic" in2="effect1_dropShadow" result="shape"/>
</filter>
</defs>
</svg>
