<svg width="135" height="138" viewBox="0 0 135 138" fill="none" xmlns="http://www.w3.org/2000/svg">
<path d="M48.5895 81.407L48.5893 81.4068C47.4924 80.3106 47.4924 78.532 48.5893 77.4359L48.5895 77.4356L77.4356 48.5895L77.4359 48.5893C78.532 47.4924 80.3106 47.4924 81.4068 48.5893L81.4072 48.5897C82.5041 49.6859 82.5041 51.4645 81.4072 52.5606L81.407 52.5609L52.5609 81.407C52.012 81.9559 51.2947 82.2299 50.5752 82.2299C49.8549 82.2299 49.1385 81.956 48.5895 81.407Z" fill="white" stroke="#55575C" stroke-width="2"/>
<path d="M76.5371 80.3457C75.5344 80.3457 74.5515 79.94 73.8433 79.2309C73.1352 78.5208 72.7285 77.5398 72.7285 76.5371C72.7285 75.5344 73.1352 74.5545 73.8433 73.8433C74.5515 73.1352 75.5344 72.7285 76.5371 72.7285C77.5398 72.7285 78.5208 73.1352 79.2289 73.8433C79.94 74.5545 80.3457 75.5344 80.3457 76.5371C80.3457 77.5398 79.9391 78.5208 79.2289 79.2309C78.5208 79.94 77.5398 80.3457 76.5371 80.3457Z" fill="#55575C"/>
<path d="M55.4491 51.4777L55.4496 51.4782C55.97 51.9987 56.2715 52.7271 56.2715 53.4629C56.2715 54.2005 55.9701 54.9286 55.4504 55.4488C54.9246 55.9719 54.1989 56.2735 53.4629 56.2735C52.7277 56.2735 52.0011 55.9719 51.4755 55.4488C50.9557 54.9286 50.6543 54.2006 50.6543 53.4629C50.6543 52.7271 50.9557 51.9987 51.4762 51.4782C52 50.9544 52.7256 50.6543 53.4629 50.6543C54.2014 50.6543 54.9267 50.9546 55.4491 51.4777Z" fill="white" stroke="#55575C" stroke-width="2"/>
<g filter="url(#filter0_d)">
<path d="M110.966 19.038C98.6885 6.76125 82.3661 0 65.0042 0C62.9006 0 61.1957 1.70494 61.1957 3.80859V24.2054C61.1957 26.3091 62.9006 28.014 65.0042 28.014C85.3981 28.014 101.989 44.6062 101.989 65C101.989 85.3938 85.3981 101.985 65.0042 101.985C51.8428 101.985 39.567 94.8994 32.9664 83.4935C31.9141 81.6735 29.5863 81.0516 27.7663 82.102L10.099 92.3019C9.2242 92.8067 8.58547 93.6398 8.32462 94.6158C8.06377 95.5917 8.20064 96.6322 8.70746 97.5069C14.3202 107.208 22.3896 115.343 32.045 121.034C41.996 126.9 53.393 130 65.0042 130C82.3661 130 98.6885 123.239 110.966 110.962C123.243 98.6852 130.004 82.3618 130.004 65C130.004 47.6382 123.243 31.3148 110.966 19.038Z" fill="white"/>
<path d="M32.1007 83.994L32.1009 83.9944C38.8799 95.7087 51.4853 102.985 65.0042 102.985C85.9504 102.985 102.989 85.9461 102.989 65C102.989 44.0539 85.9504 27.014 65.0042 27.014C63.4529 27.014 62.1957 25.7568 62.1957 24.2054V3.80859C62.1957 2.25723 63.4529 1 65.0042 1C82.1008 1 98.1689 7.65588 110.259 19.7451C122.348 31.8343 129.004 47.9034 129.004 65C129.004 82.0966 122.348 98.1657 110.259 110.255C98.1689 122.344 82.1008 129 65.0042 129C53.5706 129 42.3491 125.947 32.5528 120.172L32.045 121.034L32.5528 120.172C23.0457 114.569 15.0995 106.558 9.57303 97.0061L9.57273 97.0056C9.19941 96.3613 9.09822 95.5942 9.29071 94.874C9.48305 94.1544 9.95415 93.54 10.5988 93.168L10.599 93.1679L28.2661 82.9681C28.2662 82.9681 28.2662 82.968 28.2663 82.968C29.6086 82.1935 31.3249 82.6523 32.1007 83.994Z" stroke="#55575C" stroke-width="2"/>
</g>
<path d="M65 130C62.8963 130 61.1914 128.295 61.1914 126.191V105.793C61.1914 103.691 62.8963 101.985 65 101.985C67.1027 101.985 68.8086 103.691 68.8086 105.793V126.191C68.8086 128.295 67.1027 130 65 130Z" fill="#55575C"/>
<path d="M95.5978 121.802C94.2816 121.802 93.0012 121.12 92.296 119.898L82.0981 102.232C81.0457 100.411 81.6706 98.0815 83.4916 97.0302C85.3136 95.9779 87.6424 96.6027 88.6947 98.4237L98.8926 116.089C99.9449 117.91 99.3201 120.24 97.4991 121.291C96.899 121.637 96.2444 121.802 95.5978 121.802Z" fill="#55575C"/>
<path d="M65 0C47.6372 0 31.3148 6.76125 19.038 19.038C6.76125 31.3148 0 47.6382 0 65C0 76.4268 3.00919 87.6671 8.70224 97.507C9.40842 98.7279 10.6879 99.4093 12.003 99.4093C12.6487 99.4093 13.3033 99.2446 13.9034 98.8985L31.5707 88.6986C32.4454 88.1928 33.0842 87.3606 33.345 86.3847C33.6059 85.4077 33.469 84.3673 32.9622 83.4925C29.7249 77.8977 28.014 71.5024 28.014 65C28.014 44.6062 44.6062 28.014 65 28.014C67.1027 28.014 68.8086 26.3091 68.8086 24.2054V3.80859C68.8086 1.70494 67.1027 0 65 0Z" fill="#55575C"/>
<path d="M117.986 99.4065C117.34 99.4065 116.685 99.2418 116.086 98.8947L98.4218 88.6968C96.5998 87.6445 95.976 85.3157 97.0273 83.4937C98.0796 81.6717 100.408 81.0469 102.23 82.1002L119.895 92.2991C121.716 93.3504 122.341 95.6792 121.288 97.5012C120.583 98.7231 119.303 99.4065 117.986 99.4065Z" fill="#55575C"/>
<path d="M126.194 68.8086H105.796C103.693 68.8086 101.987 67.1037 101.987 65C101.987 62.8963 103.693 61.1914 105.796 61.1914H126.194C128.296 61.1914 130.002 62.8963 130.002 65C130.002 67.1037 128.296 68.8086 126.194 68.8086Z" fill="#55575C"/>
<path d="M100.329 48.4104C99.0124 48.4104 97.732 47.728 97.0268 46.5051C95.9745 44.6841 96.5993 42.3543 98.4203 41.303L116.085 31.1051C117.906 30.0518 120.235 30.6766 121.287 32.4986C122.339 34.3206 121.714 36.6494 119.893 37.7007L102.229 47.8996C101.63 48.2457 100.974 48.4104 100.329 48.4104Z" fill="#55575C"/>
<path d="M85.3929 33.4811C84.7462 33.4811 84.0916 33.3175 83.4925 32.9703C81.6706 31.919 81.0457 29.5892 82.098 27.7682L92.2969 10.1039C93.3483 8.28189 95.6771 7.65704 97.499 8.70936C99.321 9.76169 99.9449 12.0905 98.8925 13.9125L88.6946 31.5768C87.9895 32.7987 86.709 33.4811 85.3929 33.4811Z" fill="#55575C"/>
<path d="M34.3999 121.802C33.7543 121.802 33.0997 121.637 32.4996 121.291C30.6776 120.24 30.0538 117.91 31.1061 116.089L41.304 98.4237C42.3553 96.6027 44.6841 95.9779 46.5071 97.0302C48.3281 98.0815 48.9529 100.411 47.9006 102.232L37.7027 119.898C36.9965 121.119 35.7171 121.802 34.3999 121.802Z" fill="#55575C"/>
<path d="M82.1159 47.8824C80.6281 46.3947 78.217 46.3947 76.7293 47.8824L65 59.6117V70.3848L82.1159 53.268C83.6036 51.7812 83.6036 49.3691 82.1159 47.8824Z" fill="#55575C"/>
<defs>
<filter id="filter0_d" x="4.19531" y="0" width="129.809" height="138" filterUnits="userSpaceOnUse" color-interpolation-filters="sRGB">
<feFlood flood-opacity="0" result="BackgroundImageFix"/>
<feColorMatrix in="SourceAlpha" type="matrix" values="0 0 0 0 0 0 0 0 0 0 0 0 0 0 0 0 0 0 127 0"/>
<feOffset dy="4"/>
<feGaussianBlur stdDeviation="2"/>
<feColorMatrix type="matrix" values="0 0 0 0 0 0 0 0 0 0 0 0 0 0 0 0 0 0 0.25 0"/>
<feBlend mode="normal" in2="BackgroundImageFix" result="effect1_dropShadow"/>
<feBlend mode="normal" in="SourceGraphic" in2="effect1_dropShadow" result="shape"/>
</filter>
</defs>
</svg>
