<svg width="18" height="18" viewBox="0 0 18 18" fill="none" xmlns="http://www.w3.org/2000/svg">
<path fill-rule="evenodd" clip-rule="evenodd" d="M1.8 0H16.2C17.19 0 18 0.81 18 1.8V12.6C18 13.59 17.19 14.4 16.2 14.4H3.6L0 18L0.009 1.8C0.009 0.81 0.81 0 1.8 0ZM13.5 6.29999H4.50005C4.00505 6.29999 3.60005 6.70499 3.60005 7.19999C3.60005 7.69499 4.00505 8.09999 4.50005 8.09999H13.5C13.995 8.09999 14.4 7.69499 14.4 7.19999C14.4 6.70499 13.995 6.29999 13.5 6.29999ZM9.90005 10.8H4.50005C4.00505 10.8 3.60005 10.395 3.60005 9.9C3.60005 9.405 4.00505 9 4.50005 9H9.90005C10.395 9 10.8 9.405 10.8 9.9C10.8 10.395 10.395 10.8 9.90005 10.8ZM4.50005 5.4H13.5C13.995 5.4 14.4 4.995 14.4 4.5C14.4 4.005 13.995 3.6 13.5 3.6H4.50005C4.00505 3.6 3.60005 4.005 3.60005 4.5C3.60005 4.995 4.00505 5.4 4.50005 5.4Z" fill="#55575C"/>
</svg>
