<svg width="31" height="31" viewBox="0 0 31 31" fill="none" xmlns="http://www.w3.org/2000/svg">
<path d="M23.2156 11.2163L18.7156 15.7163L23.2156 20.2163C24.0406 21.0413 24.0406 22.3913 23.2156 23.2163C22.3906 24.0413 21.0406 24.0413 20.2156 23.2163L15.7156 18.7163L11.2156 23.2163C10.3906 24.0413 9.04058 24.0413 8.21558 23.2163C7.39058 22.3913 7.39058 21.0413 8.21558 20.2163L12.7156 15.7163L8.21558 11.2163C7.39058 10.3913 7.39058 9.04131 8.21558 8.21631C9.04058 7.39131 10.3906 7.39131 11.2156 8.21631L15.7156 12.7163L20.2156 8.21631C21.0406 7.39131 22.3906 7.39131 23.2156 8.21631C24.0406 9.04131 24.0406 10.3913 23.2156 11.2163Z" fill="#282C36"/>
</svg>
