<svg width="121" height="138" viewBox="0 0 121 138" fill="none" xmlns="http://www.w3.org/2000/svg">
<g filter="url(#filter0_d)">
<path d="M37.6206 129H10.7241C9.206 129 7.75004 128.397 6.67656 127.323C5.60308 126.25 5 124.794 5 123.276V78.4483C5 76.9301 5.60308 75.4742 6.67656 74.4007C7.75004 73.3272 9.206 72.7241 10.7241 72.7241H30.4823L43.3448 85.5866V123.276C43.3448 124.794 42.7417 126.25 41.6682 127.323C40.5947 128.397 39.1388 129 37.6206 129Z" fill="white" stroke="#55575C" stroke-width="2"/>
<path d="M41.9305 84.1709H31.8965V74.1369L41.9305 84.1709Z" stroke="#55575C" stroke-width="2"/>
<path d="M11.2256 78.9478H19.1911V82.4305H11.2256V78.9478Z" fill="#55575C" stroke="#55575C"/>
<path d="M20.1934 90.1519H28.1589V93.6346H20.1934V90.1519Z" fill="#55575C" stroke="#55575C"/>
<path d="M33.6377 90.1519H37.1204V93.6346H33.6377V90.1519Z" fill="#55575C" stroke="#55575C"/>
<path d="M29.1582 99.1201H37.1237V102.603H29.1582V99.1201Z" fill="#55575C" stroke="#55575C"/>
<path d="M11.2256 99.1201H23.6738V102.603H11.2256V99.1201Z" fill="#55575C" stroke="#55575C"/>
<path d="M11.2256 108.083H19.1911V111.566H11.2256V108.083Z" fill="#55575C" stroke="#55575C"/>
<path d="M24.6758 108.083H32.6413V111.566H24.6758V108.083Z" fill="#55575C" stroke="#55575C"/>
<path d="M26.9092 117.052H34.8747V120.535H26.9092V117.052Z" fill="#55575C" stroke="#55575C"/>
<path d="M109.342 129H82.4458C80.9277 129 79.4717 128.397 78.3982 127.323C77.3248 126.25 76.7217 124.794 76.7217 123.276V78.4483C76.7217 76.9301 77.3248 75.4742 78.3982 74.4007C79.4717 73.3272 80.9277 72.7241 82.4458 72.7241H102.204L115.066 85.5866V123.276C115.066 124.794 114.463 126.25 113.39 127.323C112.316 128.397 110.86 129 109.342 129Z" fill="white" stroke="#55575C" stroke-width="2"/>
<path d="M113.656 84.1724H103.622V74.1383L113.656 84.1724Z" stroke="#55575C" stroke-width="2"/>
<path d="M87.5 79.5H95.4655V82.9828H87.5V79.5Z" fill="#55575C" stroke="#55575C"/>
<path d="M87.5 90.5H95.4655V93.9828H87.5V90.5Z" fill="#55575C" stroke="#55575C"/>
<path d="M105.36 90.1562H108.843V93.639H105.36V90.1562Z" fill="#55575C" stroke="#55575C"/>
<path d="M100.878 99.1196H108.843V102.602H100.878V99.1196Z" fill="#55575C" stroke="#55575C"/>
<path d="M82.9492 99.1196H95.3975V102.602H82.9492V99.1196Z" fill="#55575C" stroke="#55575C"/>
<path d="M82.9492 108.085H90.9147V111.568H82.9492V108.085Z" fill="#55575C" stroke="#55575C"/>
<path d="M96.3936 108.085H104.359V111.568H96.3936V108.085Z" fill="#55575C" stroke="#55575C"/>
<path d="M98.6406 117.052H106.606V120.535H98.6406V117.052Z" fill="#55575C" stroke="#55575C"/>
<path d="M61.7698 58.2772V58.7772H62.2698H93.649C94.1109 58.7772 94.5538 58.9607 94.8804 59.2872C95.207 59.6138 95.3904 60.0567 95.3904 60.5186V71.2255H91.9077V62.7599V62.2599H91.4077H24.1663H23.6663V62.7599V71.2255H20.1836V60.5186C20.1836 60.0567 20.3671 59.6138 20.6936 59.2872C21.0202 58.9607 21.4631 58.7772 21.925 58.7772H57.787H58.287V58.2772V47.5703H61.7698V58.2772Z" fill="#55575C" stroke="#55575C"/>
<path d="M33.7984 23.3398L32.1824 23.4453C28.3775 23.6938 24.8184 25.412 22.2572 28.2368C19.6961 31.0616 18.3337 34.7716 18.458 38.5825C18.5823 42.3935 20.1836 46.0068 22.9234 48.6586C25.6633 51.3105 29.3268 52.7931 33.1398 52.7931H86.9329C88.862 52.7932 90.7722 52.4133 92.5545 51.6751C94.3368 50.9369 95.9562 49.8549 97.3202 48.4908C98.6843 47.1267 99.7663 45.5073 100.505 43.725C101.243 41.9428 101.623 40.0326 101.623 38.1035C101.622 34.9379 100.599 31.857 98.7069 29.3193C96.8144 26.7816 94.1531 24.9228 91.1191 24.0194L90.3746 23.7977L90.4052 23.0216C90.4129 22.8261 90.4156 22.6216 90.4156 22.4139L33.7984 23.3398ZM33.7984 23.3398L32.9802 21.9422M33.7984 23.3398L32.9802 21.9422M32.9802 21.9422C32.2874 20.7588 31.9155 19.4151 31.9012 18.0439L31.9009 18.0158M32.9802 21.9422L31.9009 18.0158M31.9009 18.0158L31.8991 17.9878M31.9009 18.0158L31.8991 17.9878M31.8991 17.9878C31.899 17.9875 31.8988 17.9843 31.8987 17.9755C31.8985 17.9653 31.8985 17.9539 31.8985 17.9318C31.8999 16.1021 32.531 14.3286 33.6858 12.9092C34.8406 11.4899 36.4488 10.5113 38.24 10.1378C40.0312 9.76436 41.8964 10.0187 43.5222 10.8583C45.148 11.6978 46.4353 13.0713 47.1679 14.748L48.1417 16.9768M31.8991 17.9878L48.1417 16.9768M48.1417 16.9768L49.0172 14.7076M48.1417 16.9768L49.0172 14.7076M49.0172 14.7076C50.8169 10.0431 54.1919 6.15522 58.5571 3.71773M49.0172 14.7076L58.5571 3.71773M58.5571 3.71773C62.9223 1.28024 68.0028 0.446767 72.918 1.36174M58.5571 3.71773L72.918 1.36174M72.918 1.36174C77.8333 2.27671 82.2735 4.88247 85.4693 8.72744M72.918 1.36174L85.4693 8.72744M85.4693 8.72744C88.665 12.5724 90.4149 17.4142 90.4156 22.4138L85.4693 8.72744Z" fill="white" stroke="#55575C" stroke-width="2"/>
</g>
<defs>
<filter id="filter0_d" x="0" y="0" width="120.07" height="138" filterUnits="userSpaceOnUse" color-interpolation-filters="sRGB">
<feFlood flood-opacity="0" result="BackgroundImageFix"/>
<feColorMatrix in="SourceAlpha" type="matrix" values="0 0 0 0 0 0 0 0 0 0 0 0 0 0 0 0 0 0 127 0"/>
<feOffset dy="4"/>
<feGaussianBlur stdDeviation="2"/>
<feColorMatrix type="matrix" values="0 0 0 0 0 0 0 0 0 0 0 0 0 0 0 0 0 0 0.25 0"/>
<feBlend mode="normal" in2="BackgroundImageFix" result="effect1_dropShadow"/>
<feBlend mode="normal" in="SourceGraphic" in2="effect1_dropShadow" result="shape"/>
</filter>
</defs>
</svg>
