<svg width="90" height="90" viewBox="0 0 90 90" fill="none" xmlns="http://www.w3.org/2000/svg">
<path d="M47.0313 42.8369C46.9166 42.8121 46.7989 42.8076 46.6827 42.825C45.5182 42.6894 44.6398 41.7042 44.6378 40.5323C44.6378 39.9707 44.1825 39.5153 43.6208 39.5153C43.0592 39.5153 42.6039 39.9707 42.6039 40.5323C42.6068 42.4893 43.9158 44.2035 45.8028 44.7214V45.7384C45.8028 46.3 46.2581 46.7554 46.8198 46.7554C47.3814 46.7554 47.8367 46.3 47.8367 45.7384V44.783C50.0147 44.3271 51.495 42.2986 51.2661 40.0854C51.0366 37.8722 49.172 36.1903 46.9469 36.1898C45.6717 36.1898 44.6378 35.1559 44.6378 33.8807C44.6378 32.6056 45.6717 31.5717 46.9469 31.5717C48.2221 31.5717 49.2559 32.6056 49.2559 33.8807C49.2559 34.4424 49.7113 34.8977 50.2729 34.8977C50.8345 34.8977 51.2899 34.4424 51.2899 33.8807C51.2869 31.8259 49.8474 30.0537 47.8367 29.6296V28.704C47.8367 28.1424 47.3814 27.687 46.8198 27.687C46.2581 27.687 45.8028 28.1424 45.8028 28.704V29.6917C43.7043 30.2647 42.3536 32.3021 42.6426 34.4583C42.9316 36.6144 44.7714 38.2238 46.9469 38.2233C48.2052 38.2233 49.2316 39.2308 49.2545 40.4886C49.2778 41.7464 48.2886 42.7912 47.0313 42.8369Z" fill="#D44638"/>
<path d="M32.1997 37.2848C32.1997 45.4296 38.8021 52.032 46.9469 52.032C55.0917 52.032 61.6941 45.4296 61.6941 37.2848C61.6941 29.14 55.0917 22.5376 46.9469 22.5376C38.8061 22.5465 32.2091 29.144 32.1997 37.2848ZM46.9469 24.5716C53.9684 24.5716 59.6601 30.2633 59.6601 37.2848C59.6601 44.3063 53.9684 49.998 46.9469 49.998C39.9254 49.998 34.2337 44.3063 34.2337 37.2848C34.2416 30.2667 39.9288 24.5795 46.9469 24.5716Z" fill="#D44638"/>
<path d="M66.7075 54.5392L58.741 58.3032C57.6411 56.2574 55.5312 54.9553 53.2092 54.8898L45.855 54.6877C44.6905 54.6544 43.5479 54.3595 42.5125 53.8247L41.7642 53.4368C37.9327 51.4396 33.3657 51.4446 29.5381 53.4497L29.5848 51.7544C29.6002 51.1928 29.1578 50.7251 28.5961 50.7097L20.5318 50.4877C19.9702 50.4723 19.5029 50.9147 19.4875 51.4764L19.0004 69.1732C18.985 69.7348 19.4274 70.2026 19.9891 70.218L28.0534 70.4399H28.0812C28.6324 70.4399 29.0833 70.0015 29.0982 69.4508L29.1215 68.6041L31.2165 67.4824C32.0389 67.0399 33.0002 66.9346 33.8985 67.1889L46.4091 70.7001C46.431 70.7066 46.4528 70.7116 46.4752 70.7165C47.3794 70.9057 48.3011 71.0006 49.2247 71.0001C51.1812 71.0011 53.1148 70.5795 54.8931 69.7631C54.9368 69.7433 54.979 69.7199 55.0192 69.6936L73.1584 57.9606C73.6103 57.6681 73.7563 57.0747 73.4916 56.606C72.1449 54.2165 69.1581 53.3062 66.7075 54.5392ZM21.0617 68.2128L21.4927 52.549L27.5235 52.7148L27.0925 68.3792L21.0617 68.2128ZM53.9769 67.9467C51.7676 68.9438 49.3002 69.2189 46.9256 68.7337L34.4487 65.2314C33.0444 64.8346 31.5413 64.999 30.2567 65.6897L29.1861 66.2633L29.4726 55.8487C32.8652 53.5923 37.2161 53.3604 40.8292 55.2429L41.5775 55.6307C42.8855 56.306 44.328 56.6785 45.7994 56.7212L53.1541 56.9233C55.2198 56.9829 56.9742 58.4537 57.3933 60.4777L46.4384 60.1753C45.8768 60.1599 45.4095 60.6029 45.3937 61.164C45.3783 61.7256 45.8212 62.1934 46.3823 62.2088L58.4719 62.5415H58.5002C59.0509 62.541 59.5012 62.1025 59.5161 61.5523C59.5286 61.1104 59.4958 60.6679 59.4178 60.2329L67.5889 56.3721C67.5968 56.3686 67.6048 56.3646 67.6127 56.3606C68.7717 55.7742 70.1731 55.9703 71.1265 56.8527L53.9769 67.9467Z" fill="#D44638"/>
<path d="M47.9639 19.6783V10.017C47.9639 9.45536 47.5085 9 46.9469 9C46.3853 9 45.9299 9.45536 45.9299 10.017V19.6783C45.9299 20.2399 46.3853 20.6953 46.9469 20.6953C47.5085 20.6953 47.9639 20.2399 47.9639 19.6783Z" fill="#D44638"/>
<path d="M55.5913 19.6783V15.1019C55.5913 14.5403 55.136 14.085 54.5744 14.085C54.0127 14.085 53.5574 14.5403 53.5574 15.1019V19.6783C53.5574 20.24 54.0127 20.6953 54.5744 20.6953C55.136 20.6953 55.5913 20.24 55.5913 19.6783Z" fill="#D44638"/>
<path d="M40.3367 19.6783V15.1019C40.3367 14.5403 39.8813 14.085 39.3197 14.085C38.7581 14.085 38.3027 14.5403 38.3027 15.1019V19.6783C38.3027 20.24 38.7581 20.6953 39.3197 20.6953C39.8813 20.6953 40.3367 20.24 40.3367 19.6783Z" fill="#D44638"/>
<circle cx="45" cy="45" r="44.5" stroke="#D44638"/>
</svg>
