<svg width="13" height="13" viewBox="0 0 13 13" fill="none" xmlns="http://www.w3.org/2000/svg">
<path d="M6.89431 0.629639C4.90927 0.629639 3.29431 2.04905 3.29431 3.79373C3.29431 5.53841 4.90927 6.95782 6.89431 6.95782C8.87935 6.95782 10.4943 5.53841 10.4943 3.79373C10.4943 2.04905 8.87935 0.629639 6.89431 0.629639Z" fill="#D44638"/>
<path d="M11.3733 9.02485C10.3877 8.14528 9.08107 7.66089 7.69417 7.66089H6.09417C4.70729 7.66089 3.40067 8.14528 2.41507 9.02485C1.4343 9.9001 0.894165 11.0554 0.894165 12.2781C0.894165 12.4723 1.07326 12.6297 1.29417 12.6297H12.4942C12.7151 12.6297 12.8942 12.4723 12.8942 12.2781C12.8942 11.0554 12.354 9.9001 11.3733 9.02485Z" fill="#D44638"/>
</svg>
