<svg width="90" height="90" viewBox="0 0 90 90" fill="none" xmlns="http://www.w3.org/2000/svg">
<circle cx="45" cy="45" r="44.5" stroke="#D44638"/>
<g clip-path="url(#clip0)">
<path d="M72.0871 24.6268C72.0034 24.1004 71.5243 23.73 70.994 23.7817C68.5816 24.0143 66.7777 26.1011 66.8958 28.5214L67.0768 35.9435C65.0924 36.1408 63.3554 37.3613 62.497 39.1617L59.7845 44.8562C59.3629 45.7393 58.7475 46.516 57.985 47.1294L57.4213 47.581C54.5544 49.869 52.9566 53.3916 53.1248 57.0555L52.0165 56.5282C51.5143 56.2886 50.9126 56.5021 50.6736 57.0043L47.6994 63.2493C47.4603 63.7516 47.6733 64.3527 48.1761 64.5918L61.8796 71.1182C62.1207 71.2338 62.3976 71.2485 62.65 71.159C62.9018 71.07 63.1079 70.884 63.2226 70.6425L66.1967 64.398C66.4358 63.8957 66.2228 63.2946 65.7206 63.055L65.1357 62.7766L64.9896 60.8232C64.931 60.0602 65.1716 59.3041 65.6601 58.7153L72.7566 50.1277C72.7708 50.11 72.7846 50.0923 72.7979 50.0741C74.2609 48.0316 75.0317 45.5754 74.9993 43.0632C74.9983 43.0155 74.9938 42.9677 74.9865 42.921L72.0871 24.6268ZM61.8368 68.8661L49.9524 63.2061L52.0598 58.7807L63.9442 64.4403L61.8368 68.8661ZM71.1809 48.8704L64.1066 57.4313C63.2855 58.4206 62.8817 59.6908 62.9796 60.9732L63.0401 61.778L55.2509 58.0684C54.6975 54.6948 56.0095 51.2857 58.6816 49.1532L59.2454 48.7011C60.2449 47.8978 61.0512 46.8795 61.6041 45.7225L64.3161 40.0285C65.0255 38.5443 66.6316 37.7091 68.254 37.9806L64.2891 46.3055C64.0559 46.8067 64.2704 47.4025 64.7697 47.64C65.2685 47.8776 65.8662 47.6686 66.1082 47.1717L70.5665 37.8109C70.8056 37.3086 70.5921 36.7075 70.0898 36.4679C69.7706 36.3164 69.438 36.1949 69.0962 36.1049L68.9092 28.4604C68.9092 28.452 68.9092 28.4431 68.9082 28.4343C68.8571 27.4426 69.3908 26.5128 70.2733 26.0573L72.9848 43.164C72.9966 45.208 72.366 47.2042 71.1814 48.8704H71.1809Z" fill="#D44638"/>
<path d="M39.3262 57.0039C39.0872 56.5016 38.486 56.2886 37.9838 56.5277L36.8755 57.0555C37.0432 53.3912 35.4459 49.8685 32.5785 47.5805L32.0148 47.1289C31.2523 46.5155 30.6374 45.7388 30.2153 44.8558L27.5028 39.1612C26.6444 37.3608 24.9074 36.1403 22.923 35.943L23.1045 28.5209C23.2221 26.1006 21.4182 24.0148 19.0063 23.7817C18.476 23.73 17.9968 24.1004 17.9132 24.6268L15.0138 42.92C15.0059 42.9673 15.002 43.015 15.001 43.0627C14.9681 45.5745 15.7394 48.0311 17.2024 50.0736C17.2157 50.0918 17.2289 50.1095 17.2432 50.1272L24.3397 58.7143C24.8287 59.3036 25.0693 60.0597 25.0107 60.8227L24.8641 62.7761L24.2797 63.0545C23.7775 63.2941 23.564 63.8952 23.8035 64.3975L26.7777 70.6425C26.8923 70.884 27.0984 71.07 27.3503 71.159C27.6022 71.2485 27.8791 71.2343 28.1207 71.1187L41.8242 64.5918C42.3265 64.3527 42.5395 63.7516 42.3004 63.2493L39.3262 57.0039ZM25.8932 57.4308L18.8188 48.8704C17.6338 47.2042 17.0032 45.2075 17.015 43.163L19.7269 26.0568C20.609 26.5123 21.1432 27.4421 21.0915 28.4338C21.0915 28.4422 21.0911 28.451 21.0906 28.4599L20.9041 36.1039C20.5622 36.1939 20.2292 36.3154 19.9099 36.4674C19.4077 36.7065 19.1947 37.3076 19.4338 37.8099L23.8916 47.1712C24.1341 47.6681 24.7313 47.8772 25.2306 47.6391C25.7294 47.4015 25.9439 46.8062 25.7107 46.305L21.7463 37.9801C23.3687 37.7081 24.9753 38.5439 25.6842 40.0285L28.3966 45.723C28.9496 46.88 29.7553 47.8983 30.7549 48.7016L31.3187 49.1537C33.9908 51.2857 35.3028 54.6952 34.7494 58.0684L26.9597 61.778L27.0202 60.9732C27.1181 59.6908 26.7143 58.4206 25.8932 57.4308ZM28.1635 68.8657L26.0561 64.4403L37.9405 58.7802L40.0479 63.2056L28.1635 68.8657Z" fill="#D44638"/>
<path d="M48 21H40C39.4696 21 38.9609 21.2107 38.5858 21.5858C38.2107 21.9609 38 22.4696 38 23V39C38 39.5304 38.2107 40.0391 38.5858 40.4142C38.9609 40.7893 39.4696 41 40 41H52C52.5304 41 53.0391 40.7893 53.4142 40.4142C53.7893 40.0391 54 39.5304 54 39V27L48 21Z" stroke="#D44638" stroke-width="2" stroke-linecap="round" stroke-linejoin="round"/>
<path d="M48 21V27H54" stroke="#D44638" stroke-width="2" stroke-linecap="round" stroke-linejoin="round"/>
<path d="M50 32H42" stroke="#D44638" stroke-width="2" stroke-linecap="round" stroke-linejoin="round"/>
<path d="M50 36H42" stroke="#D44638" stroke-width="2" stroke-linecap="round" stroke-linejoin="round"/>
<path d="M44 28H43H42" stroke="#D44638" stroke-width="2" stroke-linecap="round" stroke-linejoin="round"/>
</g>
<defs>
<clipPath id="clip0">
<rect width="60" height="60" fill="white" transform="translate(15 15)"/>
</clipPath>
</defs>
</svg>
